#!OML:ASF F:\VICON\USERDATA\INSTALL\rory3\rory3.ASF
:FULLY-SPECIFIED
:DEGREES
547
root -2.38305 17.5196 2.28158 -6.40838 -46.0202 3.96418
lowerback 4.62357 -4.11732 -3.65231
upperback -0.410949 -5.61493 6.94239
thorax -1.96064 -2.78963 9.7007
lowerneck -19.5269 -3.81292 -11.543
upperneck 23.0572 -5.37195 12.7737
head 11.4051 -1.97455 5.85947
rclavicle -1.09481e-013 7.63333e-014
rhumerus 33.6829 -52.2234 -18.2303
rradius 32.9347
rwrist -7.16124
rhand -24.3544 -2.69137
rfingers 7.12502
rthumb 2.13513 -32.6604
lclavicle -1.09481e-013 7.63333e-014
lhumerus 38.2874 44.6973 23.963
lradius 28.6657
lwrist 23.4431
lhand -15.5497 40.6054
lfingers 7.12502
lthumb 10.6346 70.3163
rfemur -8.1984 12.2212 9.20119
rtibia 33.126
rfoot -10.7377 20.2945
rtoes 14.5921
lfemur -3.74999 -11.2482 -10.6737
ltibia 25.3883
lfoot -9.08024 -0.364375
ltoes -26.2433
548
root -2.31564 17.4995 2.33129 -6.35689 -46.0111 3.94813
lowerback 4.77672 -4.14365 -3.56539
upperback -0.430724 -5.64485 6.93499
thorax -2.0706 -2.80037 9.65933
lowerneck -19.6261 -3.82878 -11.599
upperneck 23.1349 -5.3899 12.8288
head 11.4603 -1.97866 5.89233
rclavicle 3.99992e-014 -1.27222e-014
rhumerus 32.8251 -51.8126 -17.3526
rradius 33.5771
rwrist -7.80343
rhand -24.8189 -2.68633
rfingers 7.12502
rthumb 1.68648 -32.6594
lclavicle 3.99992e-014 -1.27222e-014
lhumerus 37.8203 44.0834 23.4092
lradius 29.2044
lwrist 23.7859
lhand -15.183 40.4269
lfingers 7.12502
lthumb 10.9883 70.1194
rfemur -8.39556 12.3462 8.91247
rtibia 33.3474
rfoot -11.0958 20.2053
rtoes 13.357
lfemur -3.71147 -10.8895 -10.8497
ltibia 25.1559
lfoot -9.5134 -0.696626
ltoes -25.5883
549
root -2.24916 17.4796 2.38231 -6.55484 -45.9857 4.22995
lowerback 4.8899 -4.15994 -3.72512
upperback -0.388749 -5.67761 6.85407
thorax -2.07682 -2.8153 9.673
lowerneck -19.662 -3.86758 -11.4526
upperneck 23.0677 -5.45065 12.7191
head 11.4433 -2.00396 5.81073
rclavicle 1.26725e-015 -4.13472e-014
rhumerus 32.1033 -51.5543 -16.6173
rradius 34.293
rwrist -8.36324
rhand -25.0607 -2.50175
rfingers 7.12502
rthumb 1.45292 -32.4765
lclavicle 1.26725e-015 -4.13472e-014
lhumerus 37.51 43.573 22.8506
lradius 29.7631
lwrist 24.2089
lhand -15.0785 40.3357
lfingers 7.12502
lthumb 11.089 70.0228
rfemur -8.55069 12.4673 8.38633
rtibia 33.5542
rfoot -11.3631 20.1787
rtoes 12.7694
lfemur -3.61292 -10.5356 -11.3248
ltibia 24.8331
lfoot -9.99028 -0.789075
ltoes -25.4951
550
root -2.18437 17.4612 2.43477 -6.88702 -46.0683 4.73583
lowerback 4.91215 -4.11502 -4.04399
upperback -0.330271 -5.63754 6.71984
thorax -2.01893 -2.79443 9.70836
lowerneck -19.5702 -3.89124 -11.2614
upperneck 22.8786 -5.49926 12.5905
head 11.3514 -2.02557 5.70988
rclavicle 2.70347e-014 9.54166e-015
rhumerus 31.2765 -51.2089 -15.75
rradius 35.0203
rwrist -8.71318
rhand -24.7702 -2.61362
rfingers 7.12502
rthumb 1.73355 -32.5863
lclavicle 2.70347e-014 9.54166e-015
lhumerus 37.3218 43.0436 22.292
lradius 30.3272
lwrist 24.7128
lhand -15.1216 39.9578
lfingers 7.12502
lthumb 11.0474 69.647
rfemur -8.74277 12.6372 7.67759
rtibia 33.6978
rfoot -11.5622 20.1611
rtoes 12.1859
lfemur -3.47432 -9.94023 -11.9981
ltibia 24.5029
lfoot -10.5059 -0.783875
ltoes -26.1625
551
root -2.11844 17.4476 2.48737 -7.12311 -46.214 5.09906
lowerback 4.95774 -4.05896 -4.19341
upperback -0.285405 -5.57235 6.59735
thorax -2.00851 -2.76041 9.66049
lowerneck -19.5641 -3.91548 -11.2253
upperneck 22.8016 -5.53441 12.5795
head 11.3252 -2.03929 5.69012
rclavicle 5.70015e-014 -2.54444e-014
rhumerus 30.3923 -50.7119 -14.8302
rradius 35.9223
rwrist -9.36266
rhand -25.2006 -3.28918
rfingers 7.12502
rthumb 1.3178 -33.2649
lclavicle 5.70015e-014 -2.54444e-014
lhumerus 37.1757 42.562 21.7338
lradius 30.923
lwrist 25.0288
lhand -15.132 39.4228
lfingers 7.12502
lthumb 11.0374 69.1126
rfemur -8.90246 12.9499 7.0916
rtibia 33.7821
rfoot -11.6834 20.0875
rtoes 12.1074
lfemur -3.31272 -9.17357 -12.5762
ltibia 24.2035
lfoot -10.9425 -0.770102
ltoes -26.3988
552
root -2.05111 17.4401 2.54055 -7.08827 -46.2915 5.16007
lowerback 5.02048 -4.07136 -4.2189
upperback -0.288622 -5.59127 6.61124
thorax -2.03952 -2.76845 9.69756
lowerneck -19.6082 -3.89295 -11.1883
upperneck 22.8321 -5.47337 12.4449
head 11.3306 -2.02228 5.64262
rclavicle 1.76421e-014 -1.90833e-014
rhumerus 29.8084 -50.2943 -14.1994
rradius 37.095
rwrist -9.90004
rhand -26.2153 -3.58949
rfingers 7.12502
rthumb 0.337755 -33.569
lclavicle 1.76421e-014 -1.90833e-014
lhumerus 36.9397 42.2963 21.1687
lradius 31.5771
lwrist 25.1827
lhand -15.2686 39.0371
lfingers 7.12502
lthumb 10.9057 68.7339
rfemur -9.05542 13.2716 6.73566
rtibia 33.7851
rfoot -11.7882 19.8721
rtoes 12.0025
lfemur -3.28103 -8.49625 -12.943
ltibia 23.9938
lfoot -11.3332 -0.655983
ltoes -25.8675
553
root -1.98212 17.4305 2.5973 -7.09658 -46.3446 5.32622
lowerback 5.01413 -4.08724 -4.33192
upperback -0.24295 -5.62089 6.60849
thorax -1.97179 -2.78683 9.7578
lowerneck -19.7943 -3.86102 -10.9727
upperneck 22.8555 -5.415 12.2207
head 11.3536 -1.99609 5.52898
rclavicle -6.59965e-014 1.59028e-014
rhumerus 29.5814 -50.246 -13.8416
rradius 38.2259
rwrist -10.1661
rhand -26.9101 -3.64922
rfingers 7.12502
rthumb -0.333221 -33.6287
lclavicle -6.59965e-014 1.59028e-014
lhumerus 36.9283 42.2443 20.7238
lradius 32.2595
lwrist 25.3849
lhand -15.5461 38.8309
lfingers 7.12502
lthumb 10.638 68.5416
rfemur -9.18197 13.5323 6.26259
rtibia 33.6925
rfoot -11.9112 19.6692
rtoes 11.8115
lfemur -3.32189 -7.94804 -13.4242
ltibia 23.8699
lfoot -11.7081 -0.429769
ltoes -24.5071
554
root -1.91143 17.4225 2.65721 -7.23319 -46.4015 5.60192
lowerback 4.99897 -4.07774 -4.39516
upperback -0.164359 -5.61378 6.52393
thorax -1.88506 -2.78808 9.69511
lowerneck -20.018 -3.85942 -10.8593
upperneck 22.9256 -5.4264 12.1963
head 11.4216 -1.98683 5.50187
rclavicle -5.52621e-014 -1.59028e-014
rhumerus 29.4992 -50.4631 -13.549
rradius 39.2559
rwrist -10.8773
rhand -27.1485 -3.44739
rfingers 7.12502
rthumb -0.563551 -33.4264
lclavicle -5.52621e-014 -1.59028e-014
lhumerus 37.0898 42.2034 20.3596
lradius 33.0278
lwrist 25.7074
lhand -15.6635 38.793
lfingers 7.12502
lthumb 10.5247 68.5095
rfemur -9.21483 13.7016 5.69385
rtibia 33.516
rfoot -12.0111 19.5448
rtoes 11.4653
lfemur -3.31947 -7.48172 -14.0209
ltibia 23.7743
lfoot -12.1365 -0.169973
ltoes -23.9123
555
root -1.83913 17.4209 2.71669 -7.37872 -46.4842 5.85116
lowerback 5.05526 -4.07385 -4.38054
upperback -0.165647 -5.60779 6.42097
thorax -1.93107 -2.78178 9.57909
lowerneck -19.8216 -3.84056 -10.866
upperneck 22.8225 -5.41545 12.2237
head 11.3437 -1.98553 5.51006
rclavicle 8.92543e-014 3.81667e-014
rhumerus 29.5157 -50.7105 -13.4344
rradius 40.4706
rwrist -11.7366
rhand -26.9344 -2.93967
rfingers 7.12502
rthumb -0.356706 -32.9191
lclavicle 8.92543e-014 3.81667e-014
lhumerus 37.134 42.0313 19.8416
lradius 33.8504
lwrist 26.1042
lhand -15.7422 38.5477
lfingers 7.12502
lthumb 10.4489 68.268
rfemur -9.22039 13.9504 5.18077
rtibia 33.3039
rfoot -12.1256 19.2797
rtoes 10.6296
lfemur -3.25279 -7.1423 -14.6137
ltibia 23.626
lfoot -12.4887 0.266606
ltoes -24.1981
556
root -1.76692 17.4182 2.77517 -7.34202 -46.537 5.93117
lowerback 5.0558 -4.12751 -4.32398
upperback -0.155689 -5.67655 6.35803
thorax -1.91951 -2.81711 9.4789
lowerneck -19.643 -3.77391 -10.6864
upperneck 22.7007 -5.34065 12.0684
head 11.2419 -1.95917 5.42448
rclavicle -3.08116e-015 -4.45278e-014
rhumerus 29.5125 -50.849 -13.317
rradius 41.9226
rwrist -12.2866
rhand -26.8213 -3.10132
rfingers 7.12502
rthumb -0.24751 -33.0809
lclavicle -3.08116e-015 -4.45278e-014
lhumerus 37.1155 41.9906 19.1808
lradius 34.7151
lwrist 26.4961
lhand -16.0332 38.2217
lfingers 7.12502
lthumb 10.1681 67.9559
rfemur -9.27926 14.2027 4.80662
rtibia 33.0406
rfoot -12.1172 18.8747
rtoes 9.81943
lfemur -3.25702 -7.01212 -15.035
ltibia 23.4616
lfoot -12.7011 0.715724
ltoes -23.6592
557
root -1.69281 17.4161 2.83329 -7.4665 -46.5523 6.22359
lowerback 5.08177 -4.13578 -4.41468
upperback -0.183625 -5.69212 6.28741
thorax -1.95874 -2.82055 9.45914
lowerneck -19.5457 -3.75656 -10.6985
upperneck 22.7386 -5.31426 12.0239
head 11.232 -1.95699 5.41475
rclavicle 3.88127e-014 -1.27222e-014
rhumerus 29.4117 -50.9791 -12.9595
rradius 43.3832
rwrist -12.2991
rhand -26.9973 -3.36668
rfingers 7.12502
rthumb -0.417441 -33.346
lclavicle 3.88127e-014 -1.27222e-014
lhumerus 37.2469 41.9438 18.7042
lradius 35.6051
lwrist 26.9648
lhand -16.1269 38.025
lfingers 7.12502
lthumb 10.0777 67.7637
rfemur -9.31452 14.3776 4.24825
rtibia 32.7559
rfoot -12.0804 18.4784
rtoes 9.07872
lfemur -3.30069 -7.10762 -15.601
ltibia 23.3201
lfoot -12.7643 1.00869
ltoes -23.3382
